<?xml version="1.0" encoding="UTF-8" standalone="no"?>
<!-- Created with Inkscape (http://www.inkscape.org/) -->

<svg
   xmlns:dc="http://purl.org/dc/elements/1.1/"
   xmlns:cc="http://creativecommons.org/ns#"
   xmlns:rdf="http://www.w3.org/1999/02/22-rdf-syntax-ns#"
   xmlns:svg="http://www.w3.org/2000/svg"
   xmlns="http://www.w3.org/2000/svg"
   xmlns:sodipodi="http://sodipodi.sourceforge.net/DTD/sodipodi-0.dtd"
   xmlns:inkscape="http://www.inkscape.org/namespaces/inkscape"
   width="200"
   height="200"
   viewBox="0 0 200 200"
   id="svg2"
   version="1.1"
   inkscape:version="0.91 r13725"
   sodipodi:docname="cap2020.svg">
  <defs
     id="defs4" />
  <sodipodi:namedview
     id="base"
     pagecolor="#ffffff"
     bordercolor="#666666"
     borderopacity="1.0"
     inkscape:pageopacity="0.0"
     inkscape:pageshadow="2"
     inkscape:zoom="1.4"
     inkscape:cx="-8.6835422"
     inkscape:cy="167.84585"
     inkscape:document-units="px"
     inkscape:current-layer="g3784"
     showgrid="false"
     inkscape:window-width="1920"
     inkscape:window-height="1004"
     inkscape:window-x="0"
     inkscape:window-y="24"
     inkscape:window-maximized="1"
     inkscape:snap-grids="true"
     showguides="true"
     inkscape:guide-bbox="true"
     units="px"
     fit-margin-top="0.3"
     fit-margin-left="0.3"
     fit-margin-right="-3.25"
     fit-margin-bottom="0.3"
     width="250in">
    <sodipodi:guide
       position="-36.117513,458.3344"
       orientation="1,0"
       id="guide3819" />
    <sodipodi:guide
       position="476.73965,630.47724"
       orientation="0,1"
       id="guide3821" />
    <sodipodi:guide
       position="488.88244,524.04868"
       orientation="1,0"
       id="guide3823" />
    <sodipodi:guide
       position="388.88244,439.04868"
       orientation="0,1"
       id="guide3825" />
  </sodipodi:namedview>
  <metadata
     id="metadata7">
    <rdf:RDF>
      <cc:Work
         rdf:about="">
        <dc:format>image/svg+xml</dc:format>
        <dc:type
           rdf:resource="http://purl.org/dc/dcmitype/StillImage" />
        <dc:title></dc:title>
      </cc:Work>
    </rdf:RDF>
  </metadata>
  <g
     inkscape:label="Layer 1"
     inkscape:groupmode="layer"
     id="layer1"
     transform="translate(-101.83216,-758.55397)">
    <g
       id="g3356"
       transform="matrix(0,-1,1,0,-253.07646,915.93365)" />
    <g
       id="g3784"
       transform="translate(5439.3564,292.10674)">
      <g
         id="g3849"
         transform="translate(32.142858,440)">
        <g
           id="g3846">
          <path
             style="fill:#d5d92c"
             d="m -5244.8892,184.48043 c -1.0603,-0.006 -2.3329,-0.19052 -2.8279,-0.40902 -0.495,-0.21849 -1.1402,-0.66697 -1.4338,-0.99661 -0.2936,-0.32963 -1.7566,-2.87933 -3.2511,-5.66598 -1.4945,-2.78666 -2.7612,-5.11105 -2.8149,-5.16531 -0.054,-0.0543 -5.8131,1.21274 -12.7989,2.81555 -6.9857,1.60281 -13.3088,2.91035 -14.0513,2.90565 -0.7425,-0.005 -1.9268,-0.24135 -2.6319,-0.52587 -0.705,-0.28451 -1.7377,-1.04992 -2.2949,-1.70089 l -1.0131,-1.18358 -2.4146,0.66172 c -2.0366,0.55814 -2.5527,0.60448 -3.2973,0.29603 -0.5269,-0.21825 -1.9241,-1.67474 -3.4655,-3.61273 -1.4205,-1.78588 -2.5827,-3.44656 -2.5827,-3.69041 0,-0.24384 0.1985,-0.60812 0.4412,-0.8095 0.2426,-0.20139 1.4239,-0.6807 2.625,-1.06513 1.3841,-0.44302 2.1719,-0.85181 2.1512,-1.11633 -0.018,-0.22954 -2.178,-3.53341 -4.8,-7.34194 l -4.7674,-6.92459 -1.5,0.15441 c -1.1813,0.12161 -1.6409,0.0357 -2.1633,-0.40466 -0.3648,-0.30749 -2.0185,-2.63312 -3.675,-5.16806 -2.2436,-3.43344 -3.0117,-4.85626 -3.0117,-5.5785 0,-0.5464 0.2291,-1.17223 0.525,-1.43401 0.2887,-0.25546 2.7172,-1.55889 5.3965,-2.89649 3.197,-1.59605 5.2185,-2.43201 5.8812,-2.43201 0.6341,0 1.2771,0.25107 1.7285,0.675 0.3953,0.37125 1.8636,2.59875 3.2627,4.95 1.3992,2.35125 2.6987,4.275 2.8878,4.275 0.1891,0 5.3171,-1.8965 11.3955,-4.21444 6.0784,-2.31795 11.1024,-4.26519 11.1644,-4.3272 0.062,-0.062 -2.7422,-5.57942 -6.2316,-12.2609 -5.4036,-10.34689 -6.3933,-12.44413 -6.675,-14.14426 -0.2488,-1.50091 -0.2409,-2.48415 0.032,-3.96341 0.1994,-1.08202 0.7094,-2.65862 1.1333,-3.50355 0.424,-0.844934 1.2265,-2.097788 1.7833,-2.784122 0.5568,-0.686334 1.6546,-1.713999 2.4396,-2.283702 0.7849,-0.569703 11.6871,-6.606708 24.2271,-13.415568 12.54,-6.808857 26.3794,-14.31714 30.7542,-16.685073 4.3747,-2.367933 8.9488,-4.643664 10.1646,-5.057178 1.2158,-0.413514 3.2951,-0.887832 4.6206,-1.054038 1.6393,-0.205548 3.0417,-0.202869 4.3853,0.0084 1.0864,0.170811 2.7853,0.695496 3.7753,1.165968 0.99,0.470472 2.162,1.204134 2.6045,1.630365 0.4424,0.426228 1.1531,1.232007 1.5791,1.790622 0.4261,0.558612 0.9732,1.607961 1.2158,2.331885 0.2426,0.723924 2.6196,13.196226 5.2821,27.716226 2.9228,15.938705 4.8416,27.145915 4.8424,28.282395 9e-4,1.51858 -0.189,2.27233 -0.9826,3.9 -0.6901,1.4153 -1.6734,2.70165 -3.2939,4.30904 -1.8974,1.88206 -2.8672,2.56467 -5.4287,3.82083 -2.6335,1.29146 -6.8877,2.64248 -27.3439,8.68378 -13.3239,3.93491 -24.3134,7.24256 -24.4212,7.35034 -0.1078,0.10778 0.2527,1.17644 0.801,2.37479 0.5484,1.19835 1.7696,3.82054 2.714,5.82709 l 1.7169,3.64827 6.4072,-1.61551 c 4.5588,-1.14943 6.9943,-1.61774 8.4419,-1.62326 1.1191,-0.004 2.4691,0.17733 3,0.40357 0.531,0.22624 1.2747,0.74714 1.6528,1.15756 0.3982,0.43222 1.8815,3.98551 3.525,8.44421 1.5607,4.23389 2.8371,7.86424 2.8365,8.06744 -6e-4,0.2032 -0.2575,0.78978 -0.5707,1.3035 -0.3133,0.51373 -1.1565,1.21454 -1.8739,1.55737 -0.8519,0.40712 -5.2141,1.30581 -12.5764,2.59095 -6.326,1.10426 -12.118,1.96248 -13.2,1.95589 z m -72.2254,-2.41195 c -0.2764,-0.013 -0.6685,-0.0908 -0.8713,-0.17293 -0.2028,-0.0821 -1.5962,-1.62185 -3.0965,-3.4217 -1.9477,-2.33669 -2.7001,-3.46163 -2.6312,-3.93403 0.077,-0.53052 0.7294,-0.92386 3.2912,-1.98551 2.9479,-1.22168 3.2599,-1.29259 4.0392,-0.91804 0.4645,0.22324 1.8406,1.6209 3.058,3.1059 1.2174,1.485 2.4147,2.99714 2.6606,3.36031 0.246,0.36317 0.364,0.92252 0.2623,1.243 -0.1309,0.41259 -1.0643,0.89856 -3.1973,1.66469 -1.6569,0.5951 -3.2386,1.07134 -3.515,1.05831 z m -21.5276,-2.97631 c -0.3292,0 -1.3695,-0.56595 -2.3117,-1.25766 -0.9677,-0.71041 -1.7132,-1.48921 -1.7132,-1.78982 0,-0.3497 0.7457,-0.94574 2.175,-1.73837 1.1962,-0.66342 2.5654,-1.20801 3.0427,-1.21019 0.5999,-0.003 1.3635,0.41971 2.475,1.36923 0.884,0.75526 1.6073,1.61147 1.6073,1.9027 0,0.36685 -0.7183,0.86655 -2.3383,1.6268 -1.2861,0.60352 -2.6077,1.09731 -2.9368,1.09731 z m 20.7744,-15.60157 c -0.1921,-9e-4 -0.7196,-0.23712 -1.1721,-0.525 -0.4525,-0.28788 -1.9038,-1.77869 -3.225,-3.3129 -1.3212,-1.53421 -2.4022,-3.04985 -2.4022,-3.36808 0,-0.31824 0.3037,-0.7747 0.675,-1.01438 0.3712,-0.23967 1.7849,-0.92132 3.1415,-1.51477 1.7487,-0.76503 2.6931,-1.02212 3.2454,-0.8835 0.4999,0.12547 1.7925,1.40479 3.6085,3.57161 1.5563,1.85687 2.8296,3.5784 2.8296,3.82563 0,0.24722 -0.1755,0.59514 -0.39,0.77315 -0.2145,0.178 -1.6435,0.80203 -3.1757,1.38673 -1.5322,0.5847 -2.9429,1.06238 -3.135,1.06151 z"
             id="path3798"
             inkscape:connector-curvature="0"
             sodipodi:nodetypes="cccscsccscsccscccccscsscssscsscscccscsssscsccssccsssscccsccccsccsccccccscsccccscscccscscsssccscscsc" />
        </g>
        <path
           inkscape:connector-curvature="0"
           id="path3796"
           d="m -5316.9995,181.76848 c -0.3397,-0.013 -0.7727,-0.0872 -0.9623,-0.16489 -0.1895,-0.0777 -1.5058,-1.54031 -2.925,-3.25032 -1.4192,-1.71001 -2.5803,-3.3741 -2.5803,-3.69796 0,-0.46369 0.6514,-0.85919 3.0653,-1.86095 2.422,-1.00518 3.2239,-1.2163 3.8216,-1.0061 0.416,0.1463 1.9392,1.72504 3.3848,3.50829 1.4455,1.78326 2.6283,3.41776 2.6283,3.63222 0,0.21446 -0.17,0.53102 -0.3778,0.70346 -0.2078,0.17244 -1.5161,0.72897 -2.9074,1.23673 -1.3913,0.50776 -2.8076,0.91255 -3.1472,0.89952 z m -21.567,-2.97631 c -0.3929,0 -1.375,-0.49865 -2.1825,-1.10812 -0.8074,-0.60946 -1.5604,-1.24427 -1.6733,-1.41067 -0.1129,-0.16641 -0.1366,-0.41362 -0.053,-0.54936 0.084,-0.13573 1.0841,-0.71593 2.2227,-1.28932 1.1386,-0.57339 2.4303,-1.04253 2.8704,-1.04253 0.5163,0 1.3709,0.48766 2.4097,1.37508 0.8852,0.75629 1.531,1.50215 1.435,1.65747 -0.096,0.15531 -1.1061,0.75152 -2.2447,1.32492 -1.1386,0.57339 -2.3917,1.04253 -2.7846,1.04253 z m 57.2494,-0.80286 c -0.495,0.0817 -1.4106,0.0269 -2.0348,-0.12167 -0.6241,-0.14858 -1.5192,-0.469 -1.9892,-0.71204 -0.47,-0.24303 -1.1952,-0.84674 -1.6116,-1.34157 -0.4163,-0.49483 -0.8037,-1.03587 -0.8607,-1.2023 -0.064,-0.18664 -1.0382,-0.0562 -2.5422,0.34042 -2.0239,0.53367 -2.5851,0.58229 -3.3,0.28593 -0.4969,-0.20595 -1.9091,-1.67564 -3.3365,-3.47228 -1.3613,-1.71336 -2.475,-3.32609 -2.475,-3.58386 0,-0.25776 0.2684,-0.61232 0.5965,-0.78789 0.3281,-0.17558 1.4888,-0.59485 2.5794,-0.93171 1.5925,-0.49185 1.956,-0.71588 1.8457,-1.13745 -0.075,-0.28874 -2.331,-3.71085 -5.0122,-7.60467 l -4.8749,-7.0797 -1.001,0.16243 c -0.5505,0.0893 -1.3439,0.0763 -1.7632,-0.0289 -0.5674,-0.14242 -1.4861,-1.2965 -3.5946,-4.5159 -1.5578,-2.37852 -2.9852,-4.61014 -3.172,-4.95916 -0.1868,-0.34901 -0.2978,-1.06708 -0.2467,-1.59571 0.089,-0.91985 0.3121,-1.07331 5.193,-3.57266 3.5154,-1.80009 5.4262,-2.61274 6.15,-2.61546 0.5775,-0.002 1.2744,0.16674 1.5487,0.37535 0.2743,0.20861 1.7319,2.42826 3.2391,4.93255 l 2.7405,4.55326 1.8609,-0.70111 c 1.0234,-0.38561 6.1808,-2.32577 11.4608,-4.31146 5.28,-1.9857 11.6925,-4.38595 14.25,-5.3339 3.7174,-1.37787 5.011,-1.72517 6.45,-1.73162 1.2689,-0.006 2.171,0.18318 3.0576,0.64016 0.6917,0.35652 1.5793,1.08821 1.9724,1.62598 0.3931,0.53778 1.9076,3.61027 3.3657,6.82777 1.458,3.2175 3.1846,6.93 3.8369,8.25 0.6523,1.32 2.3729,4.93125 3.8236,8.025 1.4507,3.09375 2.5876,5.625 2.5264,5.625 -0.061,0 0.1539,0.6187 0.4781,1.37488 0.3241,0.75617 0.5893,1.80614 0.5893,2.33324 0,0.52711 -0.2024,1.24735 -0.4498,1.60052 -0.2474,0.35319 -0.8927,0.9159 -1.434,1.25047 -0.5414,0.33458 -3.1403,1.09366 -5.7753,1.68684 -2.635,0.59319 -5.3984,1.27258 -6.1409,1.50977 -0.7425,0.23718 -6.6825,1.63763 -13.2,3.1121 -6.5175,1.47446 -12.255,2.74766 -12.75,2.82933 z m -36.3,-14.83442 c -0.33,0.009 -0.8946,-0.14794 -1.2547,-0.34834 -0.3601,-0.20041 -1.7513,-1.62818 -3.0915,-3.17284 -1.6695,-1.92416 -2.408,-3.00572 -2.3453,-3.43493 0.069,-0.46963 0.8174,-0.95915 2.9912,-1.95541 2.0638,-0.94586 3.1157,-1.27473 3.649,-1.14088 0.4635,0.11633 1.7978,1.44595 3.4979,3.48564 1.6738,2.00811 2.7089,3.50413 2.647,3.82581 -0.067,0.34818 -1.0206,0.90262 -2.7976,1.62658 -1.4828,0.6041 -2.966,1.10556 -3.296,1.11437 z"
           style="fill:#7191a6"
           sodipodi:nodetypes="ccsscscssscccccssccsccccccccccscccscccsccscscccsscsscssscsccscsccccscsssssc" />
        <path
           inkscape:connector-curvature="0"
           id="path3794"
           d="m -5316.9995,181.76848 c -0.3397,-0.013 -0.7727,-0.0872 -0.9623,-0.16489 -0.1895,-0.0777 -1.5058,-1.54031 -2.925,-3.25032 -1.4192,-1.71001 -2.5803,-3.3741 -2.5803,-3.69796 0,-0.46369 0.6514,-0.85919 3.0653,-1.86095 2.422,-1.00518 3.2239,-1.2163 3.8216,-1.0061 0.416,0.1463 1.9392,1.72504 3.3848,3.50829 1.4455,1.78326 2.6283,3.41776 2.6283,3.63222 0,0.21446 -0.17,0.53102 -0.3778,0.70346 -0.2078,0.17244 -1.5161,0.72897 -2.9074,1.23673 -1.3913,0.50776 -2.8076,0.91255 -3.1472,0.89952 z m -21.567,-2.97631 c -0.3929,0 -1.375,-0.49865 -2.1825,-1.10812 -0.8074,-0.60946 -1.5604,-1.24427 -1.6733,-1.41067 -0.1129,-0.16641 -0.1366,-0.41362 -0.053,-0.54936 0.084,-0.13573 1.0841,-0.71593 2.2227,-1.28932 1.1386,-0.57339 2.4303,-1.04253 2.8704,-1.04253 0.5163,0 1.3709,0.48766 2.4097,1.37508 0.8852,0.75629 1.531,1.50215 1.435,1.65747 -0.096,0.15531 -1.1061,0.75152 -2.2447,1.32492 -1.1386,0.57339 -2.3917,1.04253 -2.7846,1.04253 z m 56.3009,-1.20659 c -0.6333,-0.004 -1.6915,-0.25489 -2.3515,-0.55838 -0.66,-0.30348 -1.6509,-1.05279 -2.202,-1.66513 -0.5512,-0.61234 -1.1587,-1.05748 -1.35,-0.98919 -0.1914,0.0683 -1.3124,0.37036 -2.4912,0.67129 -1.7452,0.44555 -2.3023,0.4812 -3,0.19199 -0.4913,-0.20364 -1.9127,-1.68421 -3.3318,-3.47036 -1.3613,-1.71336 -2.475,-3.33373 -2.475,-3.60084 0,-0.26711 0.3333,-0.63751 0.7406,-0.8231 0.4074,-0.1856 1.5886,-0.62146 2.625,-0.96857 1.4911,-0.4994 1.8811,-0.75676 1.8684,-1.23305 -0.01,-0.33106 -1.6884,-3.03106 -3.7326,-6 -2.0442,-2.96894 -4.2356,-6.10764 -4.8698,-6.97489 -1.1233,-1.53598 -1.1836,-1.57195 -2.3282,-1.38892 -0.6463,0.10334 -1.5171,0.10204 -1.9352,-0.003 -0.5648,-0.14175 -1.4881,-1.30224 -3.5925,-4.51537 -1.5578,-2.37852 -2.9852,-4.61014 -3.172,-4.95916 -0.1868,-0.34901 -0.2978,-1.06709 -0.2467,-1.59571 0.089,-0.91985 0.3121,-1.07332 5.193,-3.57266 3.5154,-1.8001 5.4262,-2.61275 6.15,-2.61546 0.5775,-0.002 1.2744,0.16674 1.5487,0.37535 0.2743,0.20861 1.734,2.43181 3.2439,4.94046 1.9583,3.25369 2.9046,4.56117 3.3013,4.56117 0.3059,0 5.1911,-1.76279 10.8561,-3.91731 5.665,-2.15452 10.705,-4.12256 11.2,-4.37342 0.495,-0.25086 2.8575,-1.20792 5.25,-2.1268 3.5127,-1.34912 4.6965,-1.67202 6.15,-1.67757 1.2671,-0.005 2.1723,0.18502 3.0576,0.64134 0.6917,0.35652 1.5793,1.08822 1.9724,1.62599 0.3931,0.53778 1.9087,3.61027 3.368,6.82777 1.4594,3.2175 3.1031,6.78356 3.6527,7.92459 0.5496,1.14102 0.9993,2.23506 0.9993,2.43119 0,0.19614 1.0001,2.50257 2.2225,5.12542 1.2224,2.62284 2.7069,5.7138 3.2991,6.8688 0.6481,1.26434 1.0769,2.53158 1.0775,3.18454 6e-4,0.63218 -0.2499,1.40332 -0.6003,1.84881 -0.3306,0.42034 -1.1744,1.02924 -1.875,1.35311 -0.7006,0.32386 -3.6363,1.08648 -6.5238,1.6947 -2.8875,0.60822 -10.9418,2.38003 -17.8985,3.93735 -6.9566,1.55732 -13.1666,2.82853 -13.8,2.8249 z m -35.3515,-14.43036 c -0.33,0.009 -0.8946,-0.14794 -1.2547,-0.34835 -0.3601,-0.2004 -1.7513,-1.62818 -3.0915,-3.17283 -1.6695,-1.92417 -2.408,-3.00572 -2.3453,-3.43493 0.069,-0.46963 0.8174,-0.95916 2.9912,-1.95541 2.0638,-0.94586 3.1157,-1.27473 3.649,-1.14088 0.4635,0.11633 1.7978,1.44595 3.4979,3.48564 1.6738,2.00811 2.7089,3.50413 2.647,3.82581 -0.067,0.34818 -1.0206,0.90262 -2.7976,1.62658 -1.4828,0.60409 -2.966,1.10556 -3.296,1.11437 z"
           style="fill:#78b439"
           sodipodi:nodetypes="ccsscscssscccccssccsccccccccsscscscccsccscssssssccscsssccccssccccscsssssc" />
        <path
           inkscape:connector-curvature="0"
           id="path3792"
           d="m -5316.9995,181.76848 c -0.3397,-0.013 -0.7727,-0.0872 -0.9623,-0.16489 -0.1895,-0.0777 -1.5058,-1.54031 -2.925,-3.25032 -1.4192,-1.71001 -2.5803,-3.3741 -2.5803,-3.69796 0,-0.46369 0.6514,-0.85919 3.0653,-1.86095 2.422,-1.00518 3.2239,-1.2163 3.8216,-1.0061 0.416,0.1463 1.9392,1.72504 3.3848,3.50829 1.4455,1.78326 2.6283,3.41776 2.6283,3.63222 0,0.21446 -0.17,0.53102 -0.3778,0.70346 -0.2078,0.17244 -1.5161,0.72897 -2.9074,1.23673 -1.3913,0.50776 -2.8076,0.91255 -3.1472,0.89952 z m -21.567,-2.97631 c -0.3929,0 -1.375,-0.49865 -2.1825,-1.10812 -0.8074,-0.60946 -1.5604,-1.24427 -1.6733,-1.41067 -0.1129,-0.16641 -0.1366,-0.41362 -0.053,-0.54936 0.084,-0.13573 1.0841,-0.71593 2.2227,-1.28932 1.1386,-0.57339 2.4303,-1.04253 2.8704,-1.04253 0.5163,0 1.3709,0.48766 2.4097,1.37508 0.8852,0.75629 1.531,1.50215 1.435,1.65747 -0.096,0.15531 -1.1061,0.75152 -2.2447,1.32492 -1.1386,0.57339 -2.3917,1.04253 -2.7846,1.04253 z m 56.3494,-1.2112 c -0.66,-0.001 -1.74,-0.25121 -2.4,-0.55581 -0.66,-0.30462 -1.5375,-0.92003 -1.95,-1.36759 -0.7339,-0.79628 -0.7375,-0.8229 -0.1677,-1.23958 0.3203,-0.2342 0.8266,-0.42582 1.125,-0.42582 0.2985,0 0.8127,-0.27 1.1427,-0.6 0.33,-0.33 0.6,-0.72682 0.6,-0.8818 0,-0.155 -1.199,-1.88943 -2.6645,-3.85429 -1.4655,-1.96487 -2.894,-3.66056 -3.1746,-3.7682 -0.2805,-0.10764 -0.8951,-0.19571 -1.3659,-0.19571 -0.4708,0 -1.1798,0.12311 -1.5755,0.27358 -0.3958,0.15047 -0.8775,0.17599 -1.0705,0.0567 -0.193,-0.11928 -2.4427,-3.24614 -4.9993,-6.94858 -2.5566,-3.70244 -4.6461,-6.93421 -4.6433,-7.18171 0,-0.28864 1.462,-1.087 4.0684,-2.22649 2.2348,-0.97707 4.2572,-2.05335 4.4942,-2.39175 0.2371,-0.3384 0.431,-1.0412 0.431,-1.56178 0,-0.52058 0.1687,-1.07815 0.375,-1.23904 0.2062,-0.16089 5.0481,-2.06742 10.7597,-4.23673 5.7115,-2.16932 10.639,-3.94358 10.95,-3.9428 0.4304,0.001 1.3171,1.44441 3.7153,6.04749 1.7325,3.32534 3.6307,6.55986 4.2183,7.18782 0.5876,0.62796 1.9899,1.57302 3.1164,2.10015 1.7359,0.81233 2.4886,0.97963 4.9387,1.09761 2.3344,0.1124 3.3408,0.0157 5.2295,-0.50245 1.2864,-0.35291 2.4409,-0.57858 2.5656,-0.5015 0.1247,0.0771 1.3475,2.56954 2.7174,5.53881 1.3698,2.96927 2.4177,5.58865 2.3286,5.82084 -0.1001,0.26064 -2.0925,0.90529 -5.2079,1.68496 -2.7752,0.69454 -5.503,1.47971 -6.0617,1.74482 -0.5586,0.26511 -1.2693,0.89782 -1.5792,1.40603 -0.3099,0.5082 -0.564,1.19921 -0.5646,1.53558 -6e-4,0.33636 0.2684,1.14013 0.5977,1.78615 0.3294,0.64603 0.4902,1.28327 0.3574,1.4161 -0.1329,0.13282 -5.8361,1.52073 -12.6739,3.08422 -6.8378,1.56351 -12.9723,2.84184 -13.6323,2.84077 z m -10.5701,-2.0991 c -0.2914,-0.006 -0.8216,-0.17459 -1.1782,-0.375 -0.3566,-0.2004 -1.7403,-1.73254 -3.075,-3.40476 -1.3347,-1.67223 -2.4267,-3.25372 -2.4267,-3.51445 0,-0.26073 0.2443,-0.60479 0.5428,-0.76457 0.2986,-0.15979 2.0126,-0.77204 3.8089,-1.36056 1.7964,-0.58852 3.5707,-1.07003 3.9431,-1.07003 0.3723,0 0.9871,0.14595 1.3661,0.32434 0.379,0.17838 1.7353,1.72809 3.0141,3.4438 1.2787,1.7157 2.325,3.3875 2.325,3.7151 0,0.32761 -0.2363,0.72066 -0.525,0.87345 -0.2888,0.1528 -2.0415,0.69754 -3.8951,1.21056 -1.8535,0.51301 -3.6085,0.92796 -3.9,0.92212 z m -24.8299,-12.32666 c -0.33,0.009 -0.8946,-0.14794 -1.2547,-0.34834 -0.3601,-0.20041 -1.7513,-1.62818 -3.0915,-3.17284 -1.6695,-1.92416 -2.408,-3.00572 -2.3453,-3.43493 0.069,-0.46963 0.8174,-0.95915 2.9912,-1.95541 2.0638,-0.94586 3.1157,-1.27473 3.649,-1.14088 0.4635,0.11633 1.7978,1.44595 3.4979,3.48564 1.6738,2.00811 2.7089,3.50413 2.647,3.82581 -0.067,0.34818 -1.0206,0.90262 -2.7976,1.62658 -1.4828,0.6041 -2.966,1.10556 -3.296,1.11437 z m 11.5143,-12.28645 c -0.5579,-0.013 -1.1884,-0.0935 -1.4011,-0.17894 -0.2128,-0.0854 -1.6543,-2.09042 -3.2034,-4.4556 -1.5491,-2.36519 -2.9693,-4.58591 -3.1561,-4.93492 -0.1868,-0.34902 -0.2978,-1.06709 -0.2467,-1.59572 0.089,-0.91985 0.3121,-1.07331 5.193,-3.57265 3.5154,-1.8001 5.4262,-2.61275 6.15,-2.61546 0.5775,-0.002 1.2687,0.16259 1.5361,0.36612 0.2673,0.20354 1.8536,2.62541 3.525,5.38193 1.6714,2.75653 3.0389,5.32967 3.0389,5.7181 0,0.38843 -0.3038,0.97717 -0.675,1.30832 -0.3713,0.33114 -2.7161,1.50217 -5.2107,2.60229 -2.8515,1.25747 -4.9124,1.99142 -5.55,1.97653 z"
           style="fill:#ab7c27"
           sodipodi:nodetypes="ccsscscssscccccssccsccccscsssscsccscccscscsscsscccscssccscccssccsccscscccscssssscccsccsccssccc" />
        <path
           inkscape:connector-curvature="0"
           id="path3790"
           d="m -5282.2171,177.58097 c -0.66,-0.001 -1.74,-0.25121 -2.4,-0.55581 -0.66,-0.30462 -1.5375,-0.92003 -1.95,-1.36759 -0.7339,-0.79628 -0.7375,-0.8229 -0.1677,-1.23958 0.3203,-0.2342 0.8266,-0.42582 1.125,-0.42582 0.2985,0 0.8127,-0.27 1.1427,-0.6 0.33,-0.33 0.6,-0.72682 0.6,-0.8818 0,-0.155 -1.199,-1.88943 -2.6645,-3.85429 -1.4655,-1.96487 -2.894,-3.66056 -3.1746,-3.7682 -0.2805,-0.10764 -0.8951,-0.19571 -1.3659,-0.19571 -0.4708,0 -1.1798,0.12311 -1.5755,0.27358 -0.3958,0.15047 -0.8775,0.17599 -1.0705,0.0567 -0.193,-0.11928 -2.4427,-3.24614 -4.9993,-6.94858 -2.5566,-3.70244 -4.6461,-6.93421 -4.6433,-7.18171 0,-0.28864 1.462,-1.087 4.0684,-2.22649 2.2348,-0.97707 4.2572,-2.05335 4.4942,-2.39175 0.2371,-0.3384 0.431,-1.0412 0.431,-1.56178 0,-0.52058 0.1687,-1.07815 0.375,-1.23904 0.2062,-0.16089 5.0481,-2.06742 10.7597,-4.23673 5.7115,-2.16932 10.639,-3.94358 10.95,-3.9428 0.4304,0.001 1.3171,1.44441 3.7153,6.04749 1.7325,3.32534 3.6307,6.55986 4.2183,7.18782 0.5876,0.62796 1.9899,1.57302 3.1164,2.10015 1.7359,0.81233 2.4886,0.97963 4.9387,1.09761 2.3344,0.1124 3.3408,0.0157 5.2295,-0.50245 1.2864,-0.35291 2.4409,-0.57858 2.5656,-0.5015 0.1247,0.0771 1.3475,2.56954 2.7174,5.53881 1.3698,2.96927 2.4177,5.58865 2.3286,5.82084 -0.1001,0.26064 -2.0925,0.90529 -5.2079,1.68496 -2.7752,0.69454 -5.503,1.47971 -6.0617,1.74482 -0.5586,0.26511 -1.2693,0.89782 -1.5792,1.40603 -0.3099,0.5082 -0.564,1.19921 -0.5646,1.53558 -6e-4,0.33636 0.2684,1.14013 0.5977,1.78615 0.3294,0.64603 0.4902,1.28327 0.3574,1.4161 -0.1329,0.13282 -5.8361,1.52073 -12.6739,3.08422 -6.8378,1.56351 -12.9723,2.84184 -13.6323,2.84077 z"
           style="fill:#3f698a"
           sodipodi:nodetypes="ccscsssscsccscccscscsscsscccscssccsc" />
        <path
           inkscape:connector-curvature="0"
           id="path3788"
           d="m -5282.2614,177.56848 c -0.4706,-0.013 -1.4259,-0.2256 -2.1229,-0.47239 -0.6969,-0.24679 -1.6213,-0.86959 -2.0542,-1.384 -0.7428,-0.88287 -0.7569,-0.9573 -0.2504,-1.32761 0.295,-0.21577 0.7807,-0.39231 1.0791,-0.39231 0.2985,0 0.8127,-0.27 1.1427,-0.6 0.33,-0.33 0.6,-0.72682 0.6,-0.8818 0,-0.155 -1.199,-1.88943 -2.6645,-3.85429 -1.4655,-1.96487 -2.894,-3.66056 -3.1746,-3.7682 -0.2805,-0.10764 -0.8951,-0.19571 -1.3659,-0.19571 -0.4708,0 -1.1977,0.12992 -1.6153,0.28871 -0.5649,0.21477 -0.8701,0.17803 -1.1916,-0.14345 -0.2377,-0.2377 -2.4697,-3.39858 -4.9601,-7.02418 -2.4904,-3.62561 -4.5254,-6.7673 -4.5223,-6.98155 0,-0.21424 1.8342,-1.18895 4.0691,-2.16602 2.2348,-0.97707 4.2572,-2.05335 4.4942,-2.39175 0.2371,-0.33839 0.431,-1.05991 0.431,-1.60337 0,-0.82341 0.1625,-1.06235 0.975,-1.43355 0.5362,-0.245 5.417,-2.13281 10.846,-4.19515 5.4291,-2.06233 10.0866,-3.74906 10.35,-3.74828 0.3181,9e-4 1.5373,2.03269 3.629,6.04749 1.7325,3.32535 3.6307,6.55986 4.2183,7.18782 0.5876,0.62796 1.9899,1.57302 3.1164,2.10015 1.7359,0.81233 2.4886,0.97963 4.9387,1.09761 2.3427,0.1128 3.3392,0.0161 5.2565,-0.50984 1.3011,-0.35697 2.4663,-0.5423 2.5892,-0.41184 0.1229,0.13046 1.323,2.65364 2.667,5.60706 1.344,2.95343 2.3813,5.53245 2.305,5.73117 -0.076,0.19872 -2.4093,0.92957 -5.1845,1.62411 -2.7752,0.69454 -5.503,1.47971 -6.0617,1.74482 -0.5586,0.26511 -1.2693,0.89782 -1.5792,1.40603 -0.3099,0.5082 -0.564,1.19921 -0.5646,1.53558 -6e-4,0.33636 0.2684,1.14013 0.5977,1.78615 0.3294,0.64603 0.4981,1.2695 0.375,1.38549 -0.1231,0.116 -5.9137,1.50597 -12.8681,3.08884 -6.9543,1.58287 -13.0293,2.86729 -13.5,2.85426 z"
           style="fill:#27587e"
           sodipodi:nodetypes="ccccsssscsccscccscscsscscsscscssccsc" />
        <path
           inkscape:connector-curvature="0"
           id="path3786"
           d="m -5282.2614,177.56848 c -0.4706,-0.013 -1.4259,-0.2256 -2.1229,-0.47239 -0.6969,-0.24679 -1.6213,-0.86959 -2.0542,-1.384 -0.7428,-0.88287 -0.7569,-0.9573 -0.2504,-1.32761 0.295,-0.21577 0.7807,-0.39231 1.0791,-0.39231 0.2985,0 0.8127,-0.27 1.1427,-0.6 0.33,-0.33 0.6,-0.72682 0.6,-0.8818 0,-0.155 -1.199,-1.88943 -2.6645,-3.85429 -1.4655,-1.96487 -2.894,-3.66056 -3.1746,-3.7682 -0.2805,-0.10764 -0.8951,-0.19571 -1.3659,-0.19571 -0.4708,0 -1.1977,0.12992 -1.6153,0.28871 -0.5649,0.21477 -0.8701,0.17803 -1.1916,-0.14345 -0.2377,-0.2377 -2.4697,-3.39858 -4.9601,-7.02418 -2.4904,-3.62561 -4.5254,-6.7673 -4.5223,-6.98155 0,-0.21424 1.8342,-1.18895 4.0691,-2.16602 2.2348,-0.97707 4.2572,-2.05335 4.4942,-2.39175 0.2371,-0.33839 0.431,-1.05991 0.431,-1.60337 0,-0.82341 0.1625,-1.06235 0.975,-1.43355 0.5362,-0.245 5.417,-2.13281 10.846,-4.19515 5.4291,-2.06233 10.0866,-3.74906 10.35,-3.74828 0.3181,9e-4 1.5373,2.03269 3.629,6.04749 1.7325,3.32535 3.6307,6.55986 4.2183,7.18782 0.5876,0.62796 1.9899,1.57302 3.1164,2.10015 1.7359,0.81233 2.4886,0.97963 4.9387,1.09761 2.3427,0.1128 3.3392,0.0161 5.2565,-0.50984 1.3011,-0.35697 2.4663,-0.5423 2.5892,-0.41184 0.1229,0.13046 1.323,2.65364 2.667,5.60706 1.344,2.95343 2.3813,5.53245 2.305,5.73117 -0.076,0.19872 -2.4093,0.92957 -5.1845,1.62411 -2.7752,0.69454 -5.503,1.47971 -6.0617,1.74482 -0.5586,0.26511 -1.2693,0.89782 -1.5792,1.40603 -0.3099,0.5082 -0.564,1.19921 -0.5646,1.53558 -6e-4,0.33636 0.2684,1.14013 0.5977,1.78615 0.3294,0.64603 0.4981,1.2695 0.375,1.38549 -0.1231,0.116 -5.9137,1.50597 -12.8681,3.08884 -6.9543,1.58287 -13.0293,2.86729 -13.5,2.85426 z"
           style="fill:#009540" />
      </g>
    </g>
  </g>
</svg>
